# Blender 4.5.3 LTS
# www.blender.org
mtllib bush_2.mtl
o SM_Plant_Bush_03
v -0.369278 1.531143 0.189484
v 0.546349 1.388397 -0.590744
v 0.842102 0.421955 -0.455559
v 0.089814 0.983170 0.822075
v 0.292421 0.735588 0.832733
v -0.498585 1.228325 0.000082
v -0.519943 1.506622 0.424660
v 0.036699 1.866745 -0.078267
v 0.187773 1.709396 -0.384117
v -0.178917 1.632080 -0.495617
v 0.754326 1.021263 -0.860764
v 0.233740 0.357239 -0.658852
v 0.162939 0.339580 -0.784103
v -0.577793 0.190447 -0.682884
v 0.430351 0.083627 0.331779
v -0.751709 0.311697 0.153525
v 0.755692 0.739151 -0.224129
v -0.633575 0.713730 -0.516544
v -1.040184 0.835266 0.039679
v -0.700516 0.343823 0.464107
v -0.654793 0.682900 0.574280
v -0.319258 0.930443 1.001572
v -0.419289 0.761185 0.734154
v 0.292021 0.409218 0.872375
v 0.651955 0.673210 0.884041
v -0.048408 1.384232 0.563553
v 0.013672 1.720047 0.091004
v -0.296474 1.093849 0.501980
v -0.249590 1.802780 0.012565
v -0.665520 1.109459 -0.826943
v -0.370956 1.091942 -1.001572
v 0.503700 1.216866 -0.612774
v 0.319063 1.068428 -0.744759
v -0.488388 0.483917 -0.900116
v -0.130322 -0.000000 -0.022448
v -0.505665 0.254824 -0.084511
v 0.898193 0.234230 -0.093827
v 0.105644 0.116978 -0.480270
v 0.624413 0.093510 -0.011261
v -0.202959 0.167233 0.806969
v 0.277988 0.187052 0.758408
v 1.002838 0.493217 0.590904
v 1.040184 1.138718 0.553608
v 0.981552 0.411442 -0.116918
v 0.709114 1.225182 0.030596
v 0.516357 1.677017 -0.534844
v 0.364071 1.636734 -0.031565
v 0.357704 1.288254 0.477386
v -0.728516 0.433247 -0.434666
v -0.711990 0.962364 -0.031762
v -0.583427 1.226074 -0.295691
v 0.213173 1.062080 -0.857620
vn -0.5914 -0.1176 0.7977
vn -0.8445 -0.2495 0.4738
vn -0.5021 -0.2053 0.8401
vn 0.1080 -0.4592 0.8818
vn -0.0067 -0.2480 0.9687
vn 0.3701 0.2097 0.9050
vn 0.3898 -0.4998 0.7735
vn 0.3029 -0.4501 0.8401
vn 0.0307 0.5614 0.8270
vn -0.0256 0.5428 0.8395
vn 0.0946 0.1199 0.9883
vn -0.1198 0.1199 0.9855
vn 0.6528 0.5564 0.5141
vn 0.2905 0.4930 0.8201
vn 0.3005 0.7852 0.5414
vn 0.3733 0.7323 0.5695
vn -0.9127 0.3990 0.0889
vn -0.7035 0.5627 0.4341
vn -0.8723 -0.4279 0.2366
vn 0.0142 0.9502 0.3114
vn -0.5530 0.3083 0.7740
vn -0.2750 0.0311 0.9609
vn 0.0393 0.8121 0.5822
vn -0.4761 0.8524 -0.2161
vn -0.0674 0.5652 0.8222
vn 0.0405 0.7523 0.6575
vn -0.0416 0.8799 -0.4733
vn -0.9374 0.2692 -0.2208
vn -0.3068 0.8886 -0.3411
vn -0.7296 0.6761 -0.1031
vn -0.7180 0.6948 -0.0416
vn -0.0006 0.5358 -0.8443
vn 0.0535 0.9985 -0.0099
vn 0.0869 0.5760 -0.8128
vn 0.6643 -0.0696 -0.7442
vn 0.7034 -0.3033 -0.6429
vn 0.7236 -0.1677 -0.6695
vn -0.1016 0.7286 -0.6773
vn 0.3221 -0.4974 -0.8055
vn -0.2651 -0.0842 -0.9605
vn 0.7177 -0.6193 -0.3184
vn -0.4421 -0.5754 -0.6881
vn 0.1317 -0.1879 -0.9733
vn -0.9069 0.1072 -0.4075
vn -0.8830 0.1714 -0.4369
vn 0.2322 -0.1144 -0.9659
vn 0.8719 -0.1092 -0.4774
vn 0.0106 -0.5970 -0.8022
vn -0.8829 -0.0742 -0.4636
vn -0.5723 -0.8051 0.1556
vn 0.0843 -0.8113 -0.5785
vn -0.0266 -0.9652 -0.2603
vn 0.1235 -0.9749 -0.1854
vn 0.2990 -0.6668 -0.6826
vn 0.3568 -0.8262 -0.4360
vn 0.2842 -0.8323 -0.4760
vn 0.1223 -0.9917 0.0406
vn 0.5023 -0.8245 0.2604
vn 0.0607 -0.9774 0.2024
vn -0.0032 -0.9721 0.2345
vn -0.4956 -0.8077 -0.3193
vn -0.4103 -0.9002 0.1456
vn -0.4276 -0.8893 0.1625
vn 0.4322 -0.8288 0.3553
vn 0.4898 -0.8376 0.2420
vn 0.9058 -0.4232 0.0217
vn 0.9425 0.3275 -0.0662
vn 0.6432 0.0070 0.7656
vn 0.8362 -0.0797 -0.5425
vn 0.8276 -0.4354 -0.3543
vn 0.9755 0.2020 0.0874
vn 0.7439 0.6116 0.2694
vn 0.8250 0.4621 -0.3254
vn 0.7673 0.3538 -0.5349
vn 0.9599 0.1967 -0.1998
vn 0.9661 0.1422 -0.2157
vn 0.7178 0.6424 0.2686
vn 0.7671 -0.1096 -0.6321
vn -0.0672 0.1830 -0.9808
vn -0.0808 0.9236 -0.3746
vn 0.1539 0.9801 0.1250
vn 0.5823 0.8032 -0.1256
vn 0.2110 0.9771 0.0280
vn 0.6585 0.6171 0.4308
vn 0.3817 0.6721 0.6344
vn -0.7574 -0.6332 0.1594
vn -0.7196 -0.6859 0.1085
vn -0.6624 -0.4885 -0.5680
vn -0.3790 0.5681 -0.7305
vn -0.8768 -0.4417 0.1902
vn -0.8189 -0.0745 0.5691
vn -0.2450 0.8714 0.4250
vn -0.7547 0.5658 0.3321
vn -0.7738 0.5949 0.2174
vn -0.5553 0.6732 0.4884
vn -0.8589 -0.4470 0.2498
vn -0.5411 0.7987 -0.2634
vn -0.9249 0.2232 -0.3078
vn -0.9888 0.0341 0.1453
vn -0.9452 0.2159 -0.2447
vt 0.059158 0.607077
vt 0.059158 0.607076
vt 0.059158 0.607078
vt 0.059158 0.607080
vt 0.059158 0.607078
vt 0.059158 0.607078
s 1
usemtl lambert2.019
f 20/1/1 40/2/1 23/2/1
f 23/2/2 40/2/2 22/2/2
f 21/1/3 20/1/3 23/2/3
f 41/2/4 24/3/4 40/2/4
f 40/2/5 24/3/5 22/2/5
f 22/2/6 24/3/6 4/4/6
f 41/2/7 42/5/7 25/1/7
f 24/3/8 41/2/8 25/1/8
f 25/1/9 43/4/9 48/4/9
f 5/2/10 25/1/10 48/4/10
f 24/3/11 5/2/11 4/4/11
f 24/3/12 25/1/12 5/2/12
f 4/4/13 5/2/13 26/4/13
f 5/2/14 48/4/14 26/4/14
f 26/4/15 48/4/15 47/2/15
f 26/4/16 47/2/16 27/2/16
f 23/2/17 22/2/17 28/4/17
f 23/2/18 28/4/18 6/4/18
f 6/4/19 28/4/19 7/2/19
f 22/2/20 4/4/20 28/4/20
f 4/4/21 26/4/21 28/4/21
f 28/4/22 26/4/22 7/2/22
f 7/2/23 26/4/23 27/2/23
f 7/2/24 27/2/24 1/2/24
f 1/2/25 27/2/25 29/2/25
f 29/2/26 27/2/26 8/2/26
f 8/2/27 9/2/27 10/2/27
f 1/2/28 29/2/28 10/2/28
f 29/2/29 8/2/29 10/2/29
f 51/4/30 1/2/30 10/2/30
f 10/2/31 30/4/31 51/4/31
f 10/2/32 52/4/32 30/4/32
f 30/4/33 52/4/33 31/4/33
f 10/2/34 2/4/34 52/4/34
f 2/4/35 32/4/35 52/4/35
f 52/4/36 32/4/36 33/4/36
f 52/4/37 33/4/37 12/1/37
f 33/4/38 32/4/38 11/4/38
f 11/4/39 3/3/39 12/1/39
f 33/4/40 11/4/40 12/1/40
f 13/1/41 12/1/41 38/2/41
f 18/1/42 30/4/42 31/4/42
f 31/4/43 13/1/43 34/6/43
f 18/1/44 31/4/44 34/6/44
f 18/1/45 34/6/45 49/3/45
f 31/4/46 52/4/46 13/1/46
f 52/4/47 12/1/47 13/1/47
f 34/6/48 13/1/48 14/2/48
f 49/3/49 34/6/49 14/2/49
f 14/2/50 35/4/50 36/2/50
f 13/1/51 38/2/51 14/2/51
f 14/2/52 38/2/52 35/4/52
f 35/4/53 38/2/53 39/2/53
f 12/1/54 3/3/54 38/2/54
f 38/2/55 3/3/55 39/2/55
f 3/3/56 37/2/56 39/2/56
f 39/2/57 15/2/57 35/4/57
f 39/2/58 37/2/58 15/2/58
f 40/2/59 35/4/59 41/2/59
f 35/4/60 15/2/60 41/2/60
f 36/2/61 35/4/61 16/1/61
f 16/1/62 35/4/62 40/2/62
f 16/1/63 40/2/63 20/1/63
f 41/2/64 15/2/64 42/5/64
f 15/2/65 37/2/65 42/5/65
f 42/5/66 37/2/66 44/3/66
f 42/5/67 44/3/67 45/4/67
f 25/1/68 42/5/68 43/4/68
f 42/5/69 45/4/69 43/4/69
f 37/2/70 3/3/70 44/3/70
f 3/3/71 11/4/71 17/2/71
f 11/4/72 32/4/72 17/2/72
f 44/3/73 3/3/73 17/2/73
f 44/3/74 17/2/74 45/4/74
f 45/4/75 17/2/75 2/4/75
f 45/4/76 2/4/76 46/2/76
f 47/2/77 45/4/77 46/2/77
f 17/2/78 32/4/78 2/4/78
f 46/2/79 2/4/79 10/2/79
f 46/2/80 10/2/80 9/2/80
f 47/2/81 46/2/81 9/2/81
f 47/2/82 9/2/82 8/2/82
f 43/4/83 45/4/83 48/4/83
f 48/4/84 45/4/84 47/2/84
f 27/2/85 47/2/85 8/2/85
f 14/2/86 36/2/86 49/3/86
f 49/3/87 36/2/87 19/2/87
f 36/2/88 16/1/88 19/2/88
f 49/3/89 19/2/89 50/2/89
f 16/1/90 20/1/90 19/2/90
f 20/1/91 21/1/91 19/2/91
f 19/2/92 21/1/92 50/2/92
f 50/2/93 21/1/93 6/4/93
f 50/2/94 6/4/94 51/4/94
f 21/1/95 23/2/95 6/4/95
f 6/4/96 7/2/96 51/4/96
f 51/4/97 7/2/97 1/2/97
f 18/1/98 49/3/98 51/4/98
f 30/4/99 18/1/99 51/4/99
f 49/3/100 50/2/100 51/4/100
